HIERARCHY
ROOT hip
{
  OFFSET 0.222312 82.0569 -0.0481474
  CHANNELS 6 Xposition Yposition Zposition Zrotation Xrotation Yrotation
  JOINT abdomen
  {
    OFFSET 0 7.2397 0
    CHANNELS 6 Xposition Yposition Zposition Zrotation Xrotation Yrotation
    JOINT chest
    {
      OFFSET 0 16.546 0
      CHANNELS 6 Xposition Yposition Zposition Zrotation Xrotation Yrotation
      JOINT neck
      {
        OFFSET 0 34.2149 0
        CHANNELS 6 Xposition Yposition Zposition Zrotation Xrotation Yrotation
        JOINT head
        {
          OFFSET 0 6.2923 0
          CHANNELS 6 Xposition Yposition Zposition Zrotation Xrotation Yrotation
          End Site
          {
            OFFSET 0 21.2161 0
          }
        }
      }
      JOINT lCollar
      {
        OFFSET 4.0639 26.6115 -1.1234
        CHANNELS 6 Xposition Yposition Zposition Zrotation Xrotation Yrotation
        JOINT lShldr
        {
          OFFSET 14.1772 0 0
          CHANNELS 6 Xposition Yposition Zposition Zrotation Xrotation Yrotation
          JOINT lForeArm
          {
            OFFSET 26.1234 0 0
            CHANNELS 6 Xposition Yposition Zposition Zrotation Xrotation Yrotation
            JOINT lHand
            {
              OFFSET 27.7188 0 0
              CHANNELS 6 Xposition Yposition Zposition Zrotation Xrotation Yrotation
              JOINT lThumb1
              {
                OFFSET 2.2979 -0.4685 1.8313
                CHANNELS 6 Xposition Yposition Zposition Zrotation Xrotation Yrotation
                JOINT lThumb2
                {
                  OFFSET 5.2953 0 0
                  CHANNELS 6 Xposition Yposition Zposition Zrotation Xrotation Yrotation
                  JOINT lThumb3
                  {
                    OFFSET 3.0181 0 0
                    CHANNELS 6 Xposition Yposition Zposition Zrotation Xrotation Yrotation
                    End Site
                    {
                      OFFSET 2.6294 0 0
                    }
                  }
                }
              }
              JOINT lIndex1
              {
                OFFSET 9.3793 0.2991 2.5924
                CHANNELS 6 Xposition Yposition Zposition Zrotation Xrotation Yrotation
                JOINT lIndex2
                {
                  OFFSET 4.3461 0 0
                  CHANNELS 6 Xposition Yposition Zposition Zrotation Xrotation Yrotation
                  JOINT lIndex3
                  {
                    OFFSET 2.1666 0 0
                    CHANNELS 6 Xposition Yposition Zposition Zrotation Xrotation Yrotation
                    End Site
                    {
                      OFFSET 2.2048 0 0
                    }
                  }
                }
              }
              JOINT lMid1
              {
                OFFSET 9.4769 0.8376 0.2947
                CHANNELS 6 Xposition Yposition Zposition Zrotation Xrotation Yrotation
                JOINT lMid2
                {
                  OFFSET 4.772 0 0
                  CHANNELS 6 Xposition Yposition Zposition Zrotation Xrotation Yrotation
                  JOINT lMid3
                  {
                    OFFSET 2.8722 0 0
                    CHANNELS 6 Xposition Yposition Zposition Zrotation Xrotation Yrotation
                    End Site
                    {
                      OFFSET 2.0959 0 0
                    }
                  }
                }
              }
              JOINT lRing1
              {
                OFFSET 8.6586 1.0176 -1.7016
                CHANNELS 6 Xposition Yposition Zposition Zrotation Xrotation Yrotation
                JOINT lRing2
                {
                  OFFSET 4.5461 0 0
                  CHANNELS 6 Xposition Yposition Zposition Zrotation Xrotation Yrotation
                  JOINT lRing3
                  {
                    OFFSET 2.506 0 0
                    CHANNELS 6 Xposition Yposition Zposition Zrotation Xrotation Yrotation
                    End Site
                    {
                      OFFSET 2.2023 0 0
                    }
                  }
                }
              }
              JOINT lPinky1
              {
                OFFSET 7.6901 0.6618 -3.9096
                CHANNELS 6 Xposition Yposition Zposition Zrotation Xrotation Yrotation
                JOINT lPinky2
                {
                  OFFSET 3.2119 0 0
                  CHANNELS 6 Xposition Yposition Zposition Zrotation Xrotation Yrotation
                  JOINT lPinky3
                  {
                    OFFSET 1.924 0 0
                    CHANNELS 6 Xposition Yposition Zposition Zrotation Xrotation Yrotation
                    End Site
                    {
                      OFFSET 1.7829 0 0
                    }
                  }
                }
              }
            }
          }
        }
      }
      JOINT rCollar
      {
        OFFSET -4.0677 26.6109 -1.1234
        CHANNELS 6 Xposition Yposition Zposition Zrotation Xrotation Yrotation
        JOINT rShldr
        {
          OFFSET -14.1772 0 0
          CHANNELS 6 Xposition Yposition Zposition Zrotation Xrotation Yrotation
          JOINT rForeArm
          {
            OFFSET -26.1234 0 0
            CHANNELS 6 Xposition Yposition Zposition Zrotation Xrotation Yrotation
            JOINT rHand
            {
              OFFSET -27.7188 0 0
              CHANNELS 6 Xposition Yposition Zposition Zrotation Xrotation Yrotation
              JOINT rThumb1
              {
                OFFSET -2.2979 -0.4684 1.8313
                CHANNELS 6 Xposition Yposition Zposition Zrotation Xrotation Yrotation
                JOINT rThumb2
                {
                  OFFSET -5.2953 0 0
                  CHANNELS 6 Xposition Yposition Zposition Zrotation Xrotation Yrotation
                  JOINT rThumb3
                  {
                    OFFSET -3.0181 0 0
                    CHANNELS 6 Xposition Yposition Zposition Zrotation Xrotation Yrotation
                    End Site
                    {
                      OFFSET -2.6294 0 0
                    }
                  }
                }
              }
              JOINT rIndex1
              {
                OFFSET -9.3793 0.2991 2.5924
                CHANNELS 6 Xposition Yposition Zposition Zrotation Xrotation Yrotation
                JOINT rIndex2
                {
                  OFFSET -4.3461 0 0
                  CHANNELS 6 Xposition Yposition Zposition Zrotation Xrotation Yrotation
                  JOINT rIndex3
                  {
                    OFFSET -2.1666 0 0
                    CHANNELS 6 Xposition Yposition Zposition Zrotation Xrotation Yrotation
                    End Site
                    {
                      OFFSET -2.2048 0 0
                    }
                  }
                }
              }
              JOINT rMid1
              {
                OFFSET -9.4769 0.8376 0.2947
                CHANNELS 6 Xposition Yposition Zposition Zrotation Xrotation Yrotation
                JOINT rMid2
                {
                  OFFSET -4.772 0 0
                  CHANNELS 6 Xposition Yposition Zposition Zrotation Xrotation Yrotation
                  JOINT rMid3
                  {
                    OFFSET -2.8722 0 0
                    CHANNELS 6 Xposition Yposition Zposition Zrotation Xrotation Yrotation
                    End Site
                    {
                      OFFSET -2.0959 0 0
                    }
                  }
                }
              }
              JOINT rRing1
              {
                OFFSET -8.6586 1.0176 -1.7016
                CHANNELS 6 Xposition Yposition Zposition Zrotation Xrotation Yrotation
                JOINT rRing2
                {
                  OFFSET -4.5461 0 0
                  CHANNELS 6 Xposition Yposition Zposition Zrotation Xrotation Yrotation
                  JOINT rRing3
                  {
                    OFFSET -2.506 0 0
                    CHANNELS 6 Xposition Yposition Zposition Zrotation Xrotation Yrotation
                    End Site
                    {
                      OFFSET -2.2023 0 0
                    }
                  }
                }
              }
              JOINT rPinky1
              {
                OFFSET -7.6901 0.6618 -3.9096
                CHANNELS 6 Xposition Yposition Zposition Zrotation Xrotation Yrotation
                JOINT rPinky2
                {
                  OFFSET -3.2119 0 0
                  CHANNELS 6 Xposition Yposition Zposition Zrotation Xrotation Yrotation
                  JOINT rPinky3
                  {
                    OFFSET -1.924 0 0
                    CHANNELS 6 Xposition Yposition Zposition Zrotation Xrotation Yrotation
                    End Site
                    {
                      OFFSET -1.7829 0 0
                    }
                  }
                }
              }
            }
          }
        }
      }
    }
  }
  JOINT lThigh
  {
    OFFSET 8.7379 -0.0029 0.0005
    CHANNELS 6 Xposition Yposition Zposition Zrotation Xrotation Yrotation
    JOINT lShin
    {
      OFFSET 0 -46.6676 0
      CHANNELS 6 Xposition Yposition Zposition Zrotation Xrotation Yrotation
      JOINT lFoot
      {
        OFFSET 0 -40.1476 0
        CHANNELS 6 Xposition Yposition Zposition Zrotation Xrotation Yrotation
        JOINT lToes
        {
          OFFSET 0 -8.8846 14.2294
          CHANNELS 6 Xposition Yposition Zposition Zrotation Xrotation Yrotation
          End Site
          {
            OFFSET 0 0 6.296
          }
        }
      }
    }
  }
  JOINT rThigh
  {
    OFFSET -8.7379 0.0029 -0.0005
    CHANNELS 6 Xposition Yposition Zposition Zrotation Xrotation Yrotation
    JOINT rShin
    {
      OFFSET 0 -46.6676 0
      CHANNELS 6 Xposition Yposition Zposition Zrotation Xrotation Yrotation
      JOINT rFoot
      {
        OFFSET 0 -40.1476 0
        CHANNELS 6 Xposition Yposition Zposition Zrotation Xrotation Yrotation
        JOINT rToes
        {
          OFFSET 0 -8.8846 14.2294
          CHANNELS 6 Xposition Yposition Zposition Zrotation Xrotation Yrotation
          End Site
          {
            OFFSET 0 0 6.296
          }
        }
      }
    }
  }
}
MOTION
Frames:	4
Frame Time:	0.0333333
0.222312 82.0569 -0.0481474 1.94506 -1.26914 -38.3848 4.44089e-16 7.2397 -5.55112e-17 4.55245 6.27967 0.415869 0 16.546 -1.77636e-15 8.2366 14.4203 0.0183123 -7.10543e-15 34.2149 7.10543e-15 0.335796 27.0938 0.34872 3.55271e-15 6.2923 1.42109e-14 -19.0217 -26.3772 11.0886 4.0639 26.6115 -1.1234 -4.26202 -6.91851 -21.4135 14.1772 0 -3.55271e-15 -69.8655 -21.1449 -25.5397 26.1234 1.42109e-14 0 -111.278 2.14814 -84.5827 27.7188 1.42109e-14 0 7.14238 -35.4952 -0.975602 2.2979 -0.4685 1.8313 37.184 70.9488 -65.3921 5.2953 -1.42109e-14 0 -13.655 2.43915 4.23129 3.0181 7.10543e-15 0 40.5751 -4.26212 10.4488 9.3793 0.2991 2.5924 -15.7189 8.26171 2.10858 4.3461 -1.42109e-14 0 -27.9756 -1.11864 5.59658 2.1666 0 7.10543e-15 -30.2284 -1.57777 5.42756 9.4769 0.8376 0.2947 -15.5574 6.19106 1.80129 4.772 1.42109e-14 0 -44.2331 -4.15795 10.4286 2.8722 -3.55271e-15 0 -38.4625 -3.11872 10.6457 8.6586 1.0176 -1.7016 -12.8095 4.0576 0.0154257 4.5461 0 0 -68.2419 -4.98727 7.3547 2.506 0 7.10543e-15 -26.1841 0.226347 12.1003 7.6901 0.6618 -3.9096 -1.69592 -16.7036 -0.578577 3.2119 0 -7.10543e-15 -48.2122 -6.75384 15.0248 1.924 -4.88498e-15 7.10543e-15 -25.7168 -1.92456 10.2066 -4.0677 26.6109 -1.1234 -8.39835 -3.64388 -14.7447 -14.1772 0 7.10543e-15 23.5718 38.6641 60.3857 -26.1234 0 0 30.559 -4.07939 114.732 -27.7188 0 1.42109e-14 -4.25197 -7.83485 -5.85408 -2.2979 -0.4684 1.8313 -92.2024 72.3374 115.748 -5.2953 0 7.10543e-15 20.8061 -0.164262 -7.80923 -3.0181 1.42109e-14 0 7.4436 -1.87405 -23.1505 -9.3793 0.2991 2.5924 -0.483195 -1.40441 -4.462 -4.3461 0 -2.84217e-14 11.3886 0.0663637 -2.10813 -2.1666 0 0 35.2115 -1.89998 -5.61246 -9.4769 0.8376 0.2947 -5.74449 -0.4925 -10.345 -4.772 1.77636e-15 0 99.6664 -15.9161 -13.533 -2.8722 -3.55271e-15 0 64.9769 -7.76868 -13.6635 -8.6586 1.0176 -1.7016 4.03543 -11.2401 -9.54023 -4.5461 1.77636e-15 0 113.305 -9.33455 -6.15041 -2.506 0 1.42109e-14 71.4335 -4.52061 -7.1353 -7.6901 0.6618 -3.9096 -3.28615 -26.7809 -8.59916 -3.2119 0 1.42109e-14 88.1865 -18.3453 -18.9249 -1.924 0 0 68.3113 -11.8989 -18.9734 8.7379 -0.0029 0.0005 3.94595 -31.8887 19.193 8.88178e-16 -46.6676 0 90.6249 83.7277 -87.3924 -1.77636e-15 -40.1476 3.55271e-15 -7.6126 -22.2815 4.74961 1.77636e-15 -8.8846 14.2294 0.0001 0 -1.59028e-15 -8.7379 0.0029 -0.0005 2.87174 -37.4672 -7.79513 -2.66454e-15 -46.6676 0 -28.884 66.7532 24.9375 1.77636e-15 -40.1476 2.88658e-15 -0.268137 -32.3532 -6.08617 8.88178e-16 -8.8846 14.2294 4.96962e-17 1.49089e-16 -1.27222e-14 
0.375666 81.0482 -7.61115 2.1494 -1.41132 -36.4891 0 7.2397 0 4.40089 6.26039 0.201425 0 16.546 0 8.07852 14.3857 -0.22085 0 34.2149 0 0.477343 27.471 0.0142612 3.55271e-15 6.2923 -1.42109e-14 -18.7026 -26.3489 10.3942 4.0639 26.6115 -1.1234 -4.42413 -6.22377 -22.522 14.1772 1.42109e-14 0 -68.7706 -20.9875 -26.8531 26.1234 0 0 -111.543 1.36577 -84.8503 27.7188 -2.84217e-14 7.10543e-15 6.6666 -35.5535 -1.27915 2.2979 -0.4685 1.8313 37.184 70.9488 -65.3921 5.2953 0 -7.10543e-15 -13.655 2.43915 4.23129 3.0181 -7.10543e-15 0 40.5751 -4.26212 10.4488 9.3793 0.2991 2.5924 -15.7189 8.26171 2.10858 4.3461 1.42109e-14 0 -27.9756 -1.11864 5.59658 2.1666 7.10543e-15 -7.10543e-15 -30.2284 -1.57777 5.42756 9.4769 0.8376 0.2947 -15.5574 6.19106 1.80129 4.772 0 7.10543e-15 -44.2331 -4.15795 10.4286 2.8722 0 7.10543e-15 -38.4625 -3.11872 10.6457 8.6586 1.0176 -1.7016 -12.8095 4.0576 0.0154257 4.5461 0 -7.10543e-15 -68.2419 -4.98727 7.3547 2.506 7.10543e-15 0 -26.1841 0.226347 12.1003 7.6901 0.6618 -3.9096 -1.69592 -16.7036 -0.578577 3.2119 -1.42109e-14 7.10543e-15 -48.2122 -6.75384 15.0248 1.924 0 -7.10543e-15 -25.7168 -1.92456 10.2066 -4.0677 26.6109 -1.1234 -8.50272 -3.21616 -15.7486 -14.1772 0 0 23.0404 38.2872 60.4565 -26.1234 1.42109e-14 0 29.8417 -4.3636 114.795 -27.7188 -3.55271e-15 -1.42109e-14 -4.93565 -8.8167 -5.01046 -2.2979 -0.4684 1.8313 -92.2024 72.3374 115.748 -5.2953 -1.42109e-14 -7.10543e-15 20.8061 -0.164262 -7.80923 -3.0181 0 0 7.4436 -1.87405 -23.1505 -9.3793 0.2991 2.5924 -0.483195 -1.40441 -4.462 -4.3461 1.77636e-15 0 11.3886 0.0663637 -2.10813 -2.1666 7.10543e-15 -1.42109e-14 35.2115 -1.89998 -5.61246 -9.4769 0.8376 0.2947 -5.74449 -0.4925 -10.345 -4.772 3.55271e-15 0 99.6664 -15.9161 -13.533 -2.8722 0 1.42109e-14 64.9769 -7.76868 -13.6635 -8.6586 1.0176 -1.7016 4.03543 -11.2401 -9.54023 -4.5461 2.66454e-15 1.42109e-14 113.305 -9.33455 -6.15041 -2.506 -3.55271e-15 1.42109e-14 71.4335 -4.52061 -7.1353 -7.6901 0.6618 -3.9096 -3.28615 -26.7809 -8.59916 -3.2119 -7.10543e-15 0 88.1865 -18.3453 -18.9249 -1.924 0 0 68.3113 -11.8989 -18.9734 8.7379 -0.0029 0.0005 -2.88331 -24.8046 16.1993 -1.33227e-15 -46.6676 -3.55271e-15 75.8826 84.1899 -72.3732 1.77636e-15 -40.1476 0 -9.87078 -22.3298 5.01611 -1.77636e-15 -8.8846 14.2294 0.0001 0 3.18055e-15 -8.7379 0.0029 -0.0005 7.14325 -41.8801 -5.6463 0 -46.6676 0 -27.9081 66.2442 21.9422 -8.88178e-16 -40.1476 -3.33067e-15 -2.98945 -27.199 -8.42375 0 -8.8846 14.2294 9.93923e-17 4.96962e-17 -0 
0.759054 80.016 -15.271 2.47184 -1.56098 -34.3772 -8.88178e-16 7.2397 0 4.1194 6.15587 -0.0358625 1.77636e-15 16.546 0 7.83953 14.1824 -0.45672 -8.88178e-15 34.2149 7.10543e-15 0.633524 27.8714 -0.363311 1.06581e-14 6.2923 0 -18.1952 -26.6533 9.33726 4.0639 26.6115 -1.1234 -4.57722 -5.44136 -23.8105 14.1772 0 7.10543e-15 -67.1289 -21.2211 -28.1759 26.1234 0 -7.10543e-15 -114.034 0.216057 -84.6334 27.7188 -2.84217e-14 0 5.97375 -33.9119 -2.29438 2.2979 -0.4685 1.8313 37.184 70.9488 -65.3921 5.2953 0 -7.10543e-15 -13.655 2.43915 4.23129 3.0181 0 1.42109e-14 40.5751 -4.26212 10.4488 9.3793 0.2991 2.5924 -15.7189 8.26171 2.10858 4.3461 0 0 -27.9756 -1.11864 5.59658 2.1666 7.10543e-15 -7.10543e-15 -30.2284 -1.57777 5.42756 9.4769 0.8376 0.2947 -15.5574 6.19106 1.80129 4.772 0 -7.10543e-15 -44.2331 -4.15795 10.4286 2.8722 5.32907e-15 -7.10543e-15 -38.4625 -3.11872 10.6457 8.6586 1.0176 -1.7016 -12.8095 4.0576 0.0154257 4.5461 -1.42109e-14 0 -68.2419 -4.98727 7.3547 2.506 -7.10543e-15 -7.10543e-15 -26.1841 0.226347 12.1003 7.6901 0.6618 -3.9096 -1.69592 -16.7036 -0.578577 3.2119 0 -1.42109e-14 -48.2122 -6.75384 15.0248 1.924 -3.55271e-15 7.10543e-15 -25.7168 -1.92456 10.2066 -4.0677 26.6109 -1.1234 -8.593 -2.84021 -16.6605 -14.1772 0 7.10543e-15 22.9373 37.9655 60.0789 -26.1234 1.42109e-14 0 28.8219 -4.61213 115.022 -27.7188 7.10543e-15 0 -5.80014 -10.1754 -4.49793 -2.2979 -0.4684 1.8313 -92.2024 72.3374 115.748 -5.2953 -1.42109e-14 0 20.8061 -0.164262 -7.80923 -3.0181 0 0 7.4436 -1.87405 -23.1505 -9.3793 0.2991 2.5924 -0.483195 -1.40441 -4.462 -4.3461 1.77636e-15 0 11.3886 0.0663637 -2.10813 -2.1666 0 -1.42109e-14 35.2115 -1.89998 -5.61246 -9.4769 0.8376 0.2947 -5.74449 -0.4925 -10.345 -4.772 3.10862e-15 -1.42109e-14 99.6664 -15.9161 -13.533 -2.8722 0 -1.42109e-14 64.9769 -7.76868 -13.6635 -8.6586 1.0176 -1.7016 4.03543 -11.2401 -9.54023 -4.5461 5.32907e-15 0 113.305 -9.33455 -6.15041 -2.506 -3.55271e-15 -1.42109e-14 71.4335 -4.52061 -7.1353 -7.6901 0.6618 -3.9096 -3.28615 -26.7809 -8.59916 -3.2119 -7.10543e-15 -2.84217e-14 88.1865 -18.3453 -18.9249 -1.924 -1.77636e-15 -1.42109e-14 68.3113 -11.8989 -18.9734 8.7379 -0.0029 0.0005 -8.69048 -16.3213 14.8157 1.77636e-15 -46.6676 -1.77636e-15 40.424 82.2358 -39.029 0 -40.1476 -7.10543e-15 -11.1783 -19.1208 6.35866 -8.88178e-16 -8.8846 14.2294 0.0001 -3.18055e-15 7.95139e-16 -8.7379 0.0029 -0.0005 10.8273 -45.98 -3.62684 3.55271e-15 -46.6676 0 -25.5007 64.4155 18.9992 -4.44089e-16 -40.1476 0 -5.85242 -20.8697 -11.2784 0 -8.8846 14.2294 -9.93923e-17 1.49089e-16 -3.18055e-15 
1.19607 79.1267 -22.4031 2.86251 -1.68853 -32.2492 -8.88178e-16 7.2397 -3.55271e-15 3.75038 6.02466 -0.276241 -1.77636e-15 16.546 0 7.52264 13.9224 -0.711103 8.88178e-15 34.2149 -1.42109e-14 0.791856 28.2244 -0.757068 0 6.2923 -1.42109e-14 -17.5502 -26.8832 8.3075 4.0639 26.6115 -1.1234 -4.70368 -4.68783 -25.1384 14.1772 1.42109e-14 -7.10543e-15 -65.4174 -20.9902 -29.3695 26.1234 -7.10543e-15 0 -112.537 -0.0427803 -85.2943 27.7188 1.42109e-14 3.55271e-15 6.31876 -35.9824 -2.28151 2.2979 -0.4685 1.8313 37.184 70.9488 -65.3921 5.2953 1.42109e-14 -1.42109e-14 -13.655 2.43915 4.23129 3.0181 0 0 40.5751 -4.26212 10.4488 9.3793 0.2991 2.5924 -15.7189 8.26171 2.10858 4.3461 0 7.10543e-15 -27.9756 -1.11864 5.59658 2.1666 -1.42109e-14 -3.55271e-15 -30.2284 -1.57777 5.42756 9.4769 0.8376 0.2947 -15.5574 6.19106 1.80129 4.772 1.42109e-14 -3.55271e-15 -44.2331 -4.15795 10.4286 2.8722 5.32907e-15 0 -38.4625 -3.11872 10.6457 8.6586 1.0176 -1.7016 -12.8095 4.0576 0.0154257 4.5461 0 0 -68.2419 -4.98727 7.3547 2.506 0 0 -26.1841 0.226347 12.1003 7.6901 0.6618 -3.9096 -1.69592 -16.7036 -0.578577 3.2119 1.42109e-14 0 -48.2122 -6.75384 15.0248 1.924 -5.55112e-15 0 -25.7168 -1.92456 10.2066 -4.0677 26.6109 -1.1234 -8.6674 -2.55347 -17.4016 -14.1772 -1.42109e-14 -7.10543e-15 22.8723 38.1613 59.8236 -26.1234 0 0 30.9926 -3.78702 115.913 -27.7188 3.55271e-15 1.42109e-14 -6.53573 -7.77312 -4.10607 -2.2979 -0.4684 1.8313 -92.2024 72.3374 115.748 -5.2953 1.42109e-14 0 20.8061 -0.164262 -7.80923 -3.0181 1.42109e-14 0 7.4436 -1.87405 -23.1505 -9.3793 0.2991 2.5924 -0.483195 -1.40441 -4.462 -4.3461 8.88178e-16 0 11.3886 0.0663637 -2.10813 -2.1666 -1.77636e-15 0 35.2115 -1.89998 -5.61246 -9.4769 0.8376 0.2947 -5.74449 -0.4925 -10.345 -4.772 -4.44089e-16 0 99.6664 -15.9161 -13.533 -2.8722 1.77636e-15 1.42109e-14 64.9769 -7.76868 -13.6635 -8.6586 1.0176 -1.7016 4.03543 -11.2401 -9.54023 -4.5461 1.77636e-15 1.42109e-14 113.305 -9.33455 -6.15041 -2.506 0 -1.42109e-14 71.4335 -4.52061 -7.1353 -7.6901 0.6618 -3.9096 -3.28615 -26.7809 -8.59916 -3.2119 0 -1.42109e-14 88.1865 -18.3453 -18.9249 -1.924 0 0 68.3113 -11.8989 -18.9734 8.7379 -0.0029 0.0005 -13.3078 -7.015 14.8535 0 -46.6676 -1.77636e-15 17.3584 75.6463 -19.4864 0 -40.1476 0 -13.3932 -13.5794 8.18957 0 -8.8846 14.2294 0.0001 -3.18055e-15 1.19271e-15 -8.7379 0.0029 -0.0005 13.2535 -49.068 -2.52993 3.55271e-15 -46.6676 -7.10543e-15 -21.8886 60.9909 14.9827 -4.44089e-16 -40.1476 -1.77636e-15 -8.21054 -14.0695 -12.6011 -2.66454e-15 -8.8846 14.2294 0 0 -6.36111e-15 
